# xmcd CD database file generated by Grip 3.2.0
# 
# Track frame offsets:
#       150
#       15662
#       25278
#       41447
#       57491
#       74387
# 
# Disc length: 1046 seconds
# 
# Revision: 5
# Processed by: cddbd v1.5.1PL0 Copyright (c) Steve Scherf et al.
# Submitted via: Grip 3.2.0
# 
DISCID=4b041406
DTITLE=U. Hernandez - Y. Paquet - Wallatino
DYEAR=2002
DGENRE=Blues
TTITLE0=Ya Basta, a Chiapas
TTITLE1=Canción para mi América
TTITLE2=Eclipe
TTITLE3=Solo le pido a Dios
TTITLE4=Les djins do voyaedje
TTITLE5=Llanká Taiël
EXTD=
EXTT0=C' est co todi lès ptits qu' on spotche
EXTT1=(Daniel Viglietti]\n
EXTT2=(Yves Paquet)
EXTT3=
EXTT4=
EXTT5=
PLAYORDER=
